# xmcd CD database file
#
# Track frame offsets:
#	150
#	8826
#	28484
#	53972
#	77749
#	102040
#	114235
#	141858
#	158041
#	177046
#	190064
#	212523
#	225887
#	247173
#	269649
#	291531
#
# Disc length: 4227 seconds
#
# Revision: 0
# Processed by: cddbd v1.5.2PL0 Copyright (c) Steve Scherf et al.
# Submitted via: CDex 1.51
#
DISCID=dc108110
DTITLE=Various Artist - RAM 6 P.M.
DYEAR=2008
DGENRE=Jazz
TTITLE0=DONNA REGINA - DAY BY DAY
TTITLE1=BITTER:SWEET - BITTERSWEET FAITH
TTITLE2=PERRY BLAKE - WE ARE NOT STARS
TTITLE3=600 BLISS - FRAGILE STATE
TTITLE4=ENSEMBLE DU VERRE FEAT. URSULA RUCKER - OR IS THE MOMENT GONE
TTITLE5=BELLMAN - ALL THAT IS BEAUTIFUL
TTITLE6=BLUBALU - NEVERMIND
TTITLE7=STEREOLAB - VONAL DECLOSION
TTITLE8=LAMBCHOP - CRACKERS
TTITLE9=KAKI KING - SOFT SHOULDER
TTITLE10=JENNY WEISGERBER - ON MY OWN
TTITLE11=THE TWILIGHT SINGERS - SUMMERTIME
TTITLE12=POLO - A PARIS
TTITLE13=FLYKKILER - SLEEPLESS NIGHT
TTITLE14=JIMI TENOR - SPENDING TIME
TTITLE15=DONNA REGINA - A QUIET WEEK IN THE HOUSE
EXTD=YEAR: 2008
EXTT0=
EXTT1=
EXTT2=
EXTT3=
EXTT4=
EXTT5=
EXTT6=
EXTT7=
EXTT8=
EXTT9=
EXTT10=
EXTT11=
EXTT12=
EXTT13=
EXTT14=
EXTT15=
PLAYORDER=
